<?xml version="1.0" standalone="no"?>
<!DOCTYPE svg PUBLIC "-//W3C//DTD SVG 20010904//EN"
 "http://www.w3.org/TR/2001/REC-SVG-20010904/DTD/svg10.dtd">
<svg version="1.0" xmlns="http://www.w3.org/2000/svg"
 width="64.000000pt" height="64.000000pt" viewBox="0 0 64.000000 64.000000"
 preserveAspectRatio="xMidYMid meet">

<g transform="translate(0.000000,64.000000) scale(0.100000,-0.100000)"
fill="#000000" stroke="none">
<path d="M547 623 c-4 -3 -7 -14 -7 -23 0 -9 -13 -29 -29 -44 l-28 -27 -6 30
c-8 37 -28 48 -97 53 -52 3 -55 2 -64 -26 -9 -23 -7 -31 9 -45 11 -9 26 -28
34 -42 11 -23 11 -32 -8 -74 -24 -54 -24 -55 -12 -55 5 0 17 20 28 45 10 25
24 45 32 45 10 0 11 -3 2 -14 -7 -8 -8 -17 -3 -20 14 -9 151 137 161 172 9 30
3 41 -12 25z m-184 -29 c3 -4 2 -16 -4 -26 -13 -24 -33 -10 -23 15 6 18 16 21
27 11z m82 -14 c3 -5 -5 -15 -19 -22 -26 -11 -35 -28 -15 -28 6 0 19 5 30 10
16 9 19 7 19 -11 0 -28 -27 -59 -46 -52 -8 3 -14 14 -14 25 0 14 -5 18 -15 14
-18 -7 -20 13 -3 49 11 26 51 35 63 15z"/>
<path d="M580 621 c0 -6 9 -11 20 -11 11 0 20 -3 20 -8 0 -4 -43 -50 -95 -102
-52 -52 -95 -98 -95 -102 0 -5 7 -8 15 -8 19 0 19 -10 -3 -36 -28 -34 -78 -64
-106 -64 -52 0 -24 -16 56 -32 92 -19 109 -33 99 -81 -9 -44 -41 -50 -41 -8
l0 31 -75 0 c-62 0 -79 4 -95 20 -26 26 -25 48 2 77 37 40 2 25 -64 -27 -107
-84 -173 -134 -198 -151 -22 -15 -23 -19 -13 -52 8 -25 8 -38 0 -46 -8 -8 80
-11 312 -11 212 0 320 3 316 10 -3 6 -24 10 -45 10 -40 0 -100 27 -100 45 1 6
7 37 14 71 18 83 10 100 -59 120 l-57 16 30 21 c37 27 64 70 60 97 -2 13 23
46 80 103 90 90 101 119 49 125 -15 2 -27 -1 -27 -7z m-320 -417 c0 -10 -35
-29 -107 -60 -26 -11 -32 -11 -36 1 -4 8 17 33 56 64 61 50 62 50 74 28 7 -12
12 -27 13 -33z m170 -47 c0 -12 -3 -46 -6 -74 l-7 -53 -169 0 -169 0 3 27 c3
24 16 34 104 78 97 48 104 50 172 47 66 -3 72 -5 72 -25z m-330 -30 c0 -7 -9
-18 -20 -25 -13 -8 -20 -23 -20 -42 0 -37 -13 -39 -28 -5 -17 37 -16 41 21 64
37 24 47 26 47 8z m373 -46 c-5 -35 -3 -40 18 -44 16 -3 12 -5 -13 -6 -36 -1
-38 1 -38 28 0 39 9 61 25 61 9 0 12 -11 8 -39z"/>
</g>
</svg>
