<?xml version="1.0" standalone="no"?>
<!DOCTYPE svg PUBLIC "-//W3C//DTD SVG 20010904//EN"
 "http://www.w3.org/TR/2001/REC-SVG-20010904/DTD/svg10.dtd">
<svg version="1.0" xmlns="http://www.w3.org/2000/svg"
 width="64.000000pt" height="64.000000pt" viewBox="0 0 64.000000 64.000000"
 preserveAspectRatio="xMidYMid meet">

<g transform="translate(0.000000,64.000000) scale(0.100000,-0.100000)"
fill="#000000" stroke="none">
<path d="M432 536 c-71 -72 -82 -88 -82 -118 0 -34 -24 -68 -47 -68 -23 0 -37
33 -34 80 2 41 -2 53 -29 83 -64 74 -169 99 -215 52 -41 -40 -29 -112 30 -189
32 -42 74 -60 122 -53 30 5 39 2 55 -18 11 -14 23 -25 28 -25 4 0 31 21 59 46
41 37 51 52 51 78 0 26 13 44 76 106 82 82 103 110 81 110 -7 0 -50 -38 -95
-84z m-275 13 c23 -11 54 -35 69 -52 22 -27 25 -38 21 -77 -4 -36 -1 -49 15
-67 31 -34 11 -50 -22 -18 -23 22 -31 25 -48 16 -37 -20 -64 -12 -107 32 -65
65 -79 147 -31 179 20 13 59 8 103 -13z"/>
<path d="M490 525 c-35 -35 -61 -68 -57 -72 8 -7 137 115 137 129 0 18 -19 4
-80 -57z"/>
<path d="M525 490 c-38 -38 -63 -70 -54 -70 19 0 133 114 128 129 -2 6 -35
-20 -74 -59z"/>
<path d="M538 434 c-79 -77 -91 -86 -117 -81 -26 6 -37 -4 -154 -137 -155
-175 -160 -180 -186 -171 -40 12 -24 46 56 122 43 39 71 72 63 73 -8 0 -51
-33 -94 -74 -68 -63 -77 -76 -71 -97 11 -37 25 -49 54 -49 34 0 39 4 136 113
l79 89 41 -44 c22 -24 63 -69 92 -101 41 -44 59 -57 81 -57 35 0 55 20 55 57
-1 27 -18 46 -146 159 -54 48 -58 53 -45 73 9 15 23 21 47 21 29 0 46 12 122
87 83 80 101 103 82 103 -5 0 -47 -39 -95 -86z m-84 -253 c53 -46 96 -92 96
-101 0 -22 -26 -44 -44 -37 -8 3 -53 49 -100 102 -70 79 -84 100 -75 112 7 7
15 12 20 11 4 -2 50 -41 103 -87z"/>
</g>
</svg>
