<?xml version="1.0" standalone="no"?>
<!DOCTYPE svg PUBLIC "-//W3C//DTD SVG 20010904//EN"
 "http://www.w3.org/TR/2001/REC-SVG-20010904/DTD/svg10.dtd">
<svg version="1.0" xmlns="http://www.w3.org/2000/svg"
 width="64.000000pt" height="64.000000pt" viewBox="0 0 64.000000 64.000000"
 preserveAspectRatio="xMidYMid meet">

<g transform="translate(0.000000,64.000000) scale(0.100000,-0.100000)"
fill="#000000" stroke="none">
<path d="M96 508 c-9 -12 -16 -33 -16 -45 0 -16 -4 -21 -15 -17 -8 4 -26 -1
-40 -10 -24 -16 -25 -21 -25 -116 0 -95 1 -100 25 -116 14 -9 32 -14 40 -10
11 4 15 -1 15 -17 0 -35 28 -67 59 -67 40 0 51 17 51 82 l0 58 130 0 130 0 0
-58 c0 -65 11 -82 51 -82 31 0 59 32 59 67 0 16 4 21 15 17 8 -4 26 1 40 10
24 16 25 21 25 116 0 95 -1 100 -25 116 -14 9 -32 14 -40 10 -11 -4 -15 1 -15
17 0 35 -28 67 -59 67 -40 0 -51 -17 -51 -82 l0 -58 -130 0 -130 0 0 58 c0 32
-5 63 -12 70 -20 20 -65 14 -82 -10z m69 -188 l0 -175 -25 0 -25 0 -3 165 c-1
90 0 170 3 178 3 7 15 12 27 10 23 -3 23 -4 23 -178z m360 0 l0 -175 -25 0
-25 0 -3 165 c-1 90 0 170 3 178 3 7 15 12 27 10 23 -3 23 -4 23 -178z m-445
-1 c0 -98 0 -100 -22 -97 -22 3 -23 9 -26 87 -3 98 0 111 28 111 19 0 20 -6
20 -101z m525 1 c0 -91 -1 -95 -22 -98 -23 -3 -23 -1 -23 98 0 99 0 101 23 98
21 -3 22 -7 22 -98z m-155 0 l0 -40 -130 0 -130 0 0 40 0 40 130 0 130 0 0
-40z"/>
</g>
</svg>
